<?xml version="1.0" encoding="UTF-8"?>
<svg version="1.1" xmlns="http://www.w3.org/2000/svg" width="474" height="266">
<path d="M0 0 C156.42 0 312.84 0 474 0 C474 87.78 474 175.56 474 266 C317.58 266 161.16 266 0 266 C0 178.22 0 90.44 0 0 Z " fill="#FEFEFE" transform="translate(0,0)"/>
<path d="M0 0 C3.25572446 0.5613318 5.01848138 1.31079616 7 4 C6.85546875 6.48046875 6.85546875 6.48046875 6.1875 9.1875 C5.97480469 10.08855469 5.76210937 10.98960938 5.54296875 11.91796875 C5.36378906 12.60503906 5.18460938 13.29210937 5 14 C5.66 14 6.32 14 7 14 C6.125 18.75 6.125 18.75 5 21 C5.9590625 21.2165625 5.9590625 21.2165625 6.9375 21.4375 C9 22 9 22 10 23 C10.31538035 25.28358738 10.55272828 27.57819353 10.75 29.875 C10.86859375 31.13054687 10.9871875 32.38609375 11.109375 33.6796875 C11 37 11 37 9.515625 38.9453125 C9.01546875 39.29335937 8.5153125 39.64140625 8 40 C8.60328125 40.10957031 9.2065625 40.21914062 9.828125 40.33203125 C17.76625659 41.90685413 17.76625659 41.90685413 21 45 C21 44.34 21 43.68 21 43 C21.66 43 22.32 43 23 43 C23.66 44.65 24.32 46.3 25 48 C25.66 48 26.32 48 27 48 C24.69126481 40.92949848 20.3413206 36.30985342 13.74609375 32.80078125 C13.16988281 32.53652344 12.59367187 32.27226562 12 32 C11.82164485 27.45194365 12.00214565 24.1205746 14 20 C13.34 20 12.68 20 12 20 C11.505 16.535 11.505 16.535 11 13 C10.34 13.33 9.68 13.66 9 14 C9.33 12.35 9.66 10.7 10 9 C12.475 9.495 12.475 9.495 15 10 C15 11.32 15 12.64 15 14 C17.64 14 20.28 14 23 14 C22.95359375 15.09699219 22.9071875 16.19398437 22.859375 17.32421875 C22.8218421 18.7786185 22.78544357 20.23304783 22.75 21.6875 C22.71648437 22.40873047 22.68296875 23.12996094 22.6484375 23.87304688 C22.57708596 27.77954343 22.72465281 29.56934334 24.890625 32.95703125 C26.82995186 35.04039988 26.82995186 35.04039988 29 36 C28.175 35.113125 27.35 34.22625 26.5 33.3125 C24.53900524 30.98692593 24.02740522 30.25212806 23.6875 27.125 C23.790625 26.42375 23.89375 25.7225 24 25 C29.75 25.75 29.75 25.75 32 28 C32.046875 30.34765625 32.046875 30.34765625 31.75 33.0625 C31.66234375 33.96097656 31.5746875 34.85945313 31.484375 35.78515625 C31.32453125 36.51605469 31.1646875 37.24695313 31 38 C30.01 38.495 30.01 38.495 29 39 C29 40.98 29 42.96 29 45 C29.99 45.33 30.98 45.66 32 46 C31.6875 48.375 31.6875 48.375 31 51 C27.28544484 53.4763701 24.30051208 53.33147963 20 53 C19.2575 52.773125 18.515 52.54625 17.75 52.3125 C15.81160398 51.7622589 15.81160398 51.7622589 13.75 53.4375 C12.88375 54.2109375 12.88375 54.2109375 12 55 C13.670625 54.938125 13.670625 54.938125 15.375 54.875 C19 55 19 55 21 57 C20.67 57.99 20.34 58.98 20 60 C18.35425434 60.02688151 16.70838587 60.04634123 15.0625 60.0625 C13.68771484 60.07990234 13.68771484 60.07990234 12.28515625 60.09765625 C10 60 10 60 9 59 C8.95936168 57.33382885 8.957279 55.66611905 9 54 C8.01 54.33 7.02 54.66 6 55 C4.0625 55.1328125 4.0625 55.1328125 2 55.125 C0.9790625 55.12886719 0.9790625 55.12886719 -0.0625 55.1328125 C-2 55 -2 55 -5 54 C-5 55.65 -5 57.3 -5 59 C-8.63 59 -12.26 59 -16 59 C-16.495 57.515 -16.495 57.515 -17 56 C-16 55 -16 55 -12.4375 54.9375 C-11.303125 54.958125 -10.16875 54.97875 -9 55 C-12.18672116 52.5858173 -13.50336287 51.94772241 -17.5625 52.375 C-18.696875 52.58125 -19.83125 52.7875 -21 53 C-24.13532909 52.56453763 -25.25742875 51.82838084 -28 50 C-28.1875 47.375 -28.1875 47.375 -28 45 C-27.34 45 -26.68 45 -26 45 C-25.34 42.69 -24.68 40.38 -24 38 C-25.32 37.67 -26.64 37.34 -28 37 C-28.08090971 35.37581255 -28.13914995 33.75048255 -28.1875 32.125 C-28.22230469 31.22007812 -28.25710937 30.31515625 -28.29296875 29.3828125 C-28.19628906 28.59648437 -28.09960938 27.81015625 -28 27 C-24.77208445 24.8480563 -23.71599191 24.79913557 -20 25 C-20.37328935 30.35048061 -21.9957657 32.50912907 -26 36 C-25.01 36 -24.02 36 -23 36 C-22.67 35.01 -22.34 34.02 -22 33 C-21.23236328 32.41798828 -21.23236328 32.41798828 -20.44921875 31.82421875 C-18.08938187 28.85375022 -18.68917708 25.43313434 -18.8125 21.8125 C-18.82603516 21.06291016 -18.83957031 20.31332031 -18.85351562 19.54101562 C-18.88881461 17.69370233 -18.94262083 15.84675934 -19 14 C-16.36 14 -13.72 14 -11 14 C-10.67 12.35 -10.34 10.7 -10 9 C-8.68 9 -7.36 9 -6 9 C-6.33 10.32 -6.66 11.64 -7 13 C-7 12.34 -7 11.68 -7 11 C-7.66 11 -8.32 11 -9 11 C-8.814375 11.845625 -8.62875 12.69125 -8.4375 13.5625 C-7.95930296 17.31976244 -8.43005726 20.26370869 -9 24 C-9.08632733 27.00227266 -9.06127782 29.99738666 -9 33 C-9.99 33 -10.98 33 -12 33 C-12.33 35.64 -12.66 38.28 -13 41 C-10.36 40.34 -7.72 39.68 -5 39 C-5.66 38.34 -6.32 37.68 -7 37 C-7.36975922 31.54605157 -6.98035449 27.10723 -5 22 C-4.01 21.67 -3.02 21.34 -2 21 C-2.2165625 19.6078125 -2.2165625 19.6078125 -2.4375 18.1875 C-3.16364963 13.14594684 -3.5687807 8.07370796 -4 3 C-2.68 2.67 -1.36 2.34 0 2 C0 1.34 0 0.68 0 0 Z " fill="#401B34" transform="translate(233,111)"/>
<path d="M0 0 C1.32 0 2.64 0 4 0 C3.67 1.32 3.34 2.64 3 4 C3 3.34 3 2.68 3 2 C2.34 2 1.68 2 1 2 C1.185625 2.845625 1.37125 3.69125 1.5625 4.5625 C2.04069704 8.31976244 1.56994274 11.26370869 1 15 C0.91367267 18.00227266 0.93872218 20.99738666 1 24 C0.01 24 -0.98 24 -2 24 C-2.33 26.64 -2.66 29.28 -3 32 C-2.01 32.33 -1.02 32.66 0 33 C-5.75 36 -5.75 36 -8 36 C-8 35.34 -8 34.68 -8 34 C-8.66 34 -9.32 34 -10 34 C-10 35.65 -10 37.3 -10 39 C-12.475 39.495 -12.475 39.495 -15 40 C-14.67 36.37 -14.34 32.74 -14 29 C-15.32 28.67 -16.64 28.34 -18 28 C-18.08090971 26.37581255 -18.13914995 24.75048255 -18.1875 23.125 C-18.22230469 22.22007812 -18.25710937 21.31515625 -18.29296875 20.3828125 C-18.19628906 19.59648437 -18.09960938 18.81015625 -18 18 C-14.77208445 15.8480563 -13.71599191 15.79913557 -10 16 C-10.37328935 21.35048061 -11.9957657 23.50912907 -16 27 C-15.01 27 -14.02 27 -13 27 C-12.67 26.01 -12.34 25.02 -12 24 C-11.23236328 23.41798828 -11.23236328 23.41798828 -10.44921875 22.82421875 C-8.08938187 19.85375022 -8.68917708 16.43313434 -8.8125 12.8125 C-8.82603516 12.06291016 -8.83957031 11.31332031 -8.85351562 10.54101562 C-8.88881461 8.69370233 -8.94262083 6.84675934 -9 5 C-6.36 5 -3.72 5 -1 5 C-0.67 3.35 -0.34 1.7 0 0 Z " fill="#EEAE1F" transform="translate(223,120)"/>
<path d="M0 0 C1.65 0.33 3.3 0.66 5 1 C5 2.32 5 3.64 5 5 C7.64 5 10.28 5 13 5 C12.93039063 6.64548828 12.93039063 6.64548828 12.859375 8.32421875 C12.8218421 9.7786185 12.78544357 11.23304783 12.75 12.6875 C12.71648437 13.40873047 12.68296875 14.12996094 12.6484375 14.87304688 C12.57708596 18.77954343 12.72465281 20.56934334 14.890625 23.95703125 C16.82995186 26.04039988 16.82995186 26.04039988 19 27 C17.7625 25.6696875 17.7625 25.6696875 16.5 24.3125 C14.53900524 21.98692593 14.02740522 21.25212806 13.6875 18.125 C13.790625 17.42375 13.89375 16.7225 14 16 C19.75 16.75 19.75 16.75 22 19 C22.046875 21.34765625 22.046875 21.34765625 21.75 24.0625 C21.66234375 24.96097656 21.5746875 25.85945313 21.484375 26.78515625 C21.32453125 27.51605469 21.1646875 28.24695313 21 29 C20.34 29.33 19.68 29.66 19 30 C19 31.98 19 33.96 19 36 C19.66 36.33 20.32 36.66 21 37 C20.34 37.99 19.68 38.98 19 40 C17.68 39.67 16.36 39.34 15 39 C15.66 39 16.32 39 17 39 C14.69126481 31.92949848 10.3413206 27.30985342 3.74609375 23.80078125 C3.16988281 23.53652344 2.59367188 23.27226562 2 23 C1.82164485 18.45194365 2.00214565 15.1205746 4 11 C3.34 11 2.68 11 2 11 C1.67 8.69 1.34 6.38 1 4 C0.01 4.495 0.01 4.495 -1 5 C-0.67 3.35 -0.34 1.7 0 0 Z " fill="#E7A82E" transform="translate(243,120)"/>
<path d="M0 0 C1.32 0.66 2.64 1.32 4 2 C4 2.99 4 3.98 4 5 C6.97 5.495 6.97 5.495 10 6 C10.33 6.99 10.66 7.98 11 9 C12.423125 9.2165625 12.423125 9.2165625 13.875 9.4375 C17 10 17 10 19 11 C18.814375 11.9075 18.62875 12.815 18.4375 13.75 C18.04265379 16.68314324 18.05308428 18.2644657 19 21 C20.65 21.33 22.3 21.66 24 22 C24.33 21.34 24.66 20.68 25 20 C25 21.65 25 23.3 25 25 C22.69 24.34 20.38 23.68 18 23 C19.11550822 26.86137461 20.02473239 29.29521127 23 32 C23 32.66 23 33.32 23 34 C19.59755606 32.59209216 17.87869866 31.17728924 16 28 C15.671875 24.87109375 15.671875 24.87109375 15.75 21.4375 C15.76546875 20.30183594 15.7809375 19.16617188 15.796875 17.99609375 C16 15 16 15 17 12 C14.36 12 11.72 12 9 12 C8.67 10.68 8.34 9.36 8 8 C6.68 8 5.36 8 4 8 C4 8.99 4 9.98 4 11 C4.66 10.34 5.32 9.68 6 9 C6 11.97 6 14.94 6 18 C6.66 18 7.32 18 8 18 C7.835 18.680625 7.67 19.36125 7.5 20.0625 C6.92910941 23.4164822 6.93340977 26.60389805 7 30 C8.670625 30.86625 8.670625 30.86625 10.375 31.75 C13.43280569 33.47538835 14.64081219 34.71529614 16 38 C17.485 38.495 17.485 38.495 19 39 C20.64820195 41.60242414 21 42.86248779 21 46 C19.515 46.495 19.515 46.495 18 47 C17.67 45.02 17.34 43.04 17 41 C16.34 41 15.68 41 15 41 C15 41.66 15 42.32 15 43 C14.43796875 42.70351562 13.8759375 42.40703125 13.296875 42.1015625 C10.98032695 40.99056497 8.69290908 40.16535294 6.25 39.375 C5.05117187 38.98441406 5.05117187 38.98441406 3.828125 38.5859375 C3.22484375 38.39257812 2.6215625 38.19921875 2 38 C2.33 37.01 2.66 36.02 3 35 C3.66 35 4.32 35 5 35 C4.77239693 32.70600066 4.51721121 30.41472363 4.25 28.125 C4.11078125 26.84882813 3.9715625 25.57265625 3.828125 24.2578125 C3.35599986 20.91099877 3.35599986 20.91099877 0.921875 19.5546875 C0.28765625 19.37164062 -0.3465625 19.18859375 -1 19 C-0.01 15.535 -0.01 15.535 1 12 C0.34 12 -0.32 12 -1 12 C-0.67 8.04 -0.34 4.08 0 0 Z " fill="#F7F5E3" transform="translate(239,113)"/>
<path d="M0 0 C1.32 0.33 2.64 0.66 4 1 C4 1.99 4 2.98 4 4 C4.99 3.01 5.98 2.02 7 1 C8.32 1.66 9.64 2.32 11 3 C11.33 2.34 11.66 1.68 12 1 C12 1.99 12 2.98 12 4 C13.32 4.66 14.64 5.32 16 6 C16 6.66 16 7.32 16 8 C15.34 8.66 14.68 9.32 14 10 C14 10.66 14 11.32 14 12 C13.01 12.495 13.01 12.495 12 13 C13.11375 12.95875 14.2275 12.9175 15.375 12.875 C19 13 19 13 21 15 C20.67 15.99 20.34 16.98 20 18 C18.35425434 18.02688151 16.70838587 18.04634123 15.0625 18.0625 C14.14597656 18.07410156 13.22945312 18.08570313 12.28515625 18.09765625 C10 18 10 18 9 17 C8.95936168 15.33382885 8.957279 13.66611905 9 12 C8.01 12.33 7.02 12.66 6 13 C4.0625 13.1328125 4.0625 13.1328125 2 13.125 C0.9790625 13.12886719 0.9790625 13.12886719 -0.0625 13.1328125 C-2 13 -2 13 -5 12 C-5 13.65 -5 15.3 -5 17 C-8.63 17 -12.26 17 -16 17 C-16.33 16.01 -16.66 15.02 -17 14 C-16 13 -16 13 -12.4375 12.9375 C-11.303125 12.958125 -10.16875 12.97875 -9 13 C-10.39759905 9.45481116 -10.39759905 9.45481116 -12 6 C-11.67 5.34 -11.34 4.68 -11 4 C-10.01 4 -9.02 4 -8 4 C-7.67 3.01 -7.34 2.02 -7 1 C-7 1.66 -7 2.32 -7 3 C-5.35 2.34 -3.7 1.68 -2 1 C1 4.625 1 4.625 1 8 C1.66 7.67 2.32 7.34 3 7 C2.67 5.35 2.34 3.7 2 2 C1.34 2 0.68 2 0 2 C0 1.34 0 0.68 0 0 Z " fill="#CAA75E" transform="translate(233,153)"/>
<path d="M0 0 C0 0.99 0 1.98 0 3 C0.66 3 1.32 3 2 3 C2.66 4.98 3.32 6.96 4 9 C2.68 9 1.36 9 0 9 C-0.66 7.35 -1.32 5.7 -2 4 C-5.04200046 4 -7.99532806 4.55486342 -11 5 C-11 5.99 -11 6.98 -11 8 C-10.34 8.66 -9.68 9.32 -9 10 C-9.33 10.66 -9.66 11.32 -10 12 C-10.515625 11.814375 -11.03125 11.62875 -11.5625 11.4375 C-14.1713937 10.83752918 -14.1713937 10.83752918 -17.5 11.5 C-22.3024837 12.1860691 -23.99946172 11.66702552 -28 9 C-28.1875 6.375 -28.1875 6.375 -28 4 C-27.34 4 -26.68 4 -26 4 C-25.67 4.99 -25.34 5.98 -25 7 C-23.68 6.67 -22.36 6.34 -21 6 C-20.67 4.68 -20.34 3.36 -20 2 C-19.34 2 -18.68 2 -18 2 C-18 2.66 -18 3.32 -18 4 C-17.40832031 3.65066406 -16.81664062 3.30132812 -16.20703125 2.94140625 C-15.41683594 2.48636719 -14.62664062 2.03132812 -13.8125 1.5625 C-13.03519531 1.11003906 -12.25789062 0.65757812 -11.45703125 0.19140625 C-7.09644241 -1.92302872 -4.20447372 -2.64726123 0 0 Z " fill="#315A45" transform="translate(233,152)"/>
<path d="M0 0 C5.61 0 11.22 0 17 0 C17.33 1.32 17.66 2.64 18 4 C20.84979639 5.11680706 20.84979639 5.11680706 24 6 C26.375 7.5 26.375 7.5 28 9 C28 9.66 28 10.32 28 11 C29.32 11.66 30.64 12.32 32 13 C32 13.66 32 14.32 32 15 C32.66 15 33.32 15 34 15 C33.505 17.475 33.505 17.475 33 20 C28.3125 16.38671875 28.3125 16.38671875 27 15 C27 14.01 27 13.02 27 12 C26.01 12.33 25.02 12.66 24 13 C23.608125 12.525625 23.21625 12.05125 22.8125 11.5625 C20.59191626 9.64820367 18.86624291 9.38733012 16 9 C16 8.34 16 7.68 16 7 C12.37 6.67 8.74 6.34 5 6 C5 4.68 5 3.36 5 2 C4.01 3.485 4.01 3.485 3 5 C2.01 5 1.02 5 0 5 C0 3.35 0 1.7 0 0 Z " fill="#D9DEE7" transform="translate(234,101)"/>
<path d="M0 0 C0.845625 0.26167969 1.69125 0.52335938 2.5625 0.79296875 C5.06112883 1.83806831 6.9147876 3.0989574 9 4.8125 C9 4.1525 9 3.4925 9 2.8125 C9.66 2.8125 10.32 2.8125 11 2.8125 C11.33 4.7925 11.66 6.7725 12 8.8125 C14.47266765 8.46805119 14.47266765 8.46805119 17 7.8125 C17.33 7.1525 17.66 6.4925 18 5.8125 C18.66 5.8125 19.32 5.8125 20 5.8125 C19.6875 8.1875 19.6875 8.1875 19 10.8125 C15.27691836 13.29455443 12.30612955 13.12694354 8 12.8125 C6.66666667 12.47916667 5.33333333 12.14583333 4 11.8125 C1.81296615 12.19157282 1.81296615 12.19157282 0 12.8125 C0.33 11.8225 0.66 10.8325 1 9.8125 C1.99 9.8125 2.98 9.8125 4 9.8125 C1.59239472 7.12973983 -0.22254772 5.1086723 -3.625 3.8125 C-6.07542291 3.56653126 -6.07542291 3.56653126 -7.8125 5.25 C-8.204375 5.765625 -8.59625 6.28125 -9 6.8125 C-9 4.8325 -9 2.8525 -9 0.8125 C-5.56789519 -1.37228894 -3.82097822 -1.24065299 0 0 Z " fill="#345F49" transform="translate(245,151.1875)"/>
<path d="M0 0 C3.25572446 0.5613318 5.01848138 1.31079616 7 4 C6.85546875 6.48046875 6.85546875 6.48046875 6.1875 9.1875 C5.97480469 10.08855469 5.76210937 10.98960938 5.54296875 11.91796875 C5.27419922 12.94857422 5.27419922 12.94857422 5 14 C5.66 14 6.32 14 7 14 C6.67 15.65 6.34 17.3 6 19 C3.69 19 1.38 19 -1 19 C-1.33 19.66 -1.66 20.32 -2 21 C-2.930215 15.02004643 -3.48758893 9.02900687 -4 3 C-2.68 2.67 -1.36 2.34 0 2 C0 1.34 0 0.68 0 0 Z " fill="#65252E" transform="translate(233,111)"/>
<path d="M0 0 C1.32 0 2.64 0 4 0 C3.67 1.32 3.34 2.64 3 4 C3 3.34 3 2.68 3 2 C2.34 2 1.68 2 1 2 C1.185625 2.845625 1.37125 3.69125 1.5625 4.5625 C2.0376098 8.29550556 1.61620573 11.30276561 1 15 C1 16.32 1 17.64 1 19 C-1.97 19 -4.94 19 -8 19 C-8.77112541 14.27685687 -9.09764874 9.78478822 -9 5 C-6.36 5 -3.72 5 -1 5 C-0.67 3.35 -0.34 1.7 0 0 Z " fill="#BA3229" transform="translate(223,120)"/>
<path d="M0 0 C3.37462715 0.54723683 5.08235 1.0549 8 3 C8.29296875 5.1640625 8.29296875 5.1640625 8.1875 7.625 C8.16042969 8.44226563 8.13335937 9.25953125 8.10546875 10.1015625 C8.07066406 10.72804687 8.03585938 11.35453125 8 12 C9.11375 12.5775 10.2275 13.155 11.375 13.75 C14.43280569 15.47538835 15.64081219 16.71529614 17 20 C17.99 20.33 18.98 20.66 20 21 C21.64820195 23.60242414 22 24.86248779 22 28 C21.01 28.33 20.02 28.66 19 29 C18.67 27.02 18.34 25.04 18 23 C17.34 23 16.68 23 16 23 C16 23.66 16 24.32 16 25 C15.43796875 24.70351562 14.8759375 24.40703125 14.296875 24.1015625 C11.98032695 22.99056497 9.69290908 22.16535294 7.25 21.375 C6.05117187 20.98441406 6.05117187 20.98441406 4.828125 20.5859375 C4.22484375 20.39257812 3.6215625 20.19921875 3 20 C3.33 19.01 3.66 18.02 4 17 C4.66 17 5.32 17 6 17 C5.77178654 14.72687382 5.5166633 12.45643691 5.25 10.1875 C5.11078125 8.92292969 4.9715625 7.65835938 4.828125 6.35546875 C4.3063497 2.93303523 4.3063497 2.93303523 1.921875 1.05078125 C1.28765625 0.70402344 0.6534375 0.35726562 0 0 Z " fill="#D5AF52" transform="translate(238,131)"/>
<path d="M0 0 C2.4375 0.375 2.4375 0.375 5 1 C5.33 1.66 5.66 2.32 6 3 C8.02463255 3.65213292 8.02463255 3.65213292 10 4 C10.75 6.125 10.75 6.125 11 9 C9.0625 12.3125 9.0625 12.3125 7 15 C0.72544081 14.40806045 0.72544081 14.40806045 -2 12.875 C-3.64601397 9.78872381 -2.75473773 7.30923465 -2 4 C-0.9375 1.5625 -0.9375 1.5625 0 0 Z " fill="#BE3440" transform="translate(231,136)"/>
<path d="M0 0 C-0.37328935 5.35048061 -1.9957657 7.50912907 -6 11 C-5.01 11 -4.02 11 -3 11 C-3 12.98 -3 14.96 -3 17 C-1.02 16.34 0.96 15.68 3 15 C3 15.99 3 16.98 3 18 C3.66 18.33 4.32 18.66 5 19 C4.01 19.33 3.02 19.66 2 20 C2 19.34 2 18.68 2 18 C1.34 18 0.68 18 0 18 C0 19.65 0 21.3 0 23 C-1.65 23.33 -3.3 23.66 -5 24 C-4.67 20.37 -4.34 16.74 -4 13 C-5.32 12.67 -6.64 12.34 -8 12 C-8.08090971 10.37581255 -8.13914995 8.75048255 -8.1875 7.125 C-8.22230469 6.22007812 -8.25710937 5.31515625 -8.29296875 4.3828125 C-8.19628906 3.59648437 -8.09960938 2.81015625 -8 2 C-4.77208445 -0.1519437 -3.71599191 -0.20086443 0 0 Z " fill="#D5B854" transform="translate(213,136)"/>
<path d="M0 0 C1.04449911 3.13349732 0.93423645 3.98968256 0 7 C-0.99 7 -1.98 7 -3 7 C-3.020625 7.5775 -3.04125 8.155 -3.0625 8.75 C-4.36269267 11.8704624 -6.32728274 12.67041173 -9.2109375 14.265625 C-11 15 -11 15 -14 15 C-14 12.69 -14 10.38 -14 8 C-12.35 8 -10.7 8 -9 8 C-9 7.34 -9 6.68 -9 6 C-8.34 6 -7.68 6 -7 6 C-6.773125 5.195625 -6.54625 4.39125 -6.3125 3.5625 C-5.879375 2.716875 -5.44625 1.87125 -5 1 C-2.375 0.1875 -2.375 0.1875 0 0 Z " fill="#7D84A8" transform="translate(215,106)"/>
<path d="M0 0 C5.75 0.75 5.75 0.75 8 3 C8.046875 5.34765625 8.046875 5.34765625 7.75 8.0625 C7.61851562 9.41021484 7.61851562 9.41021484 7.484375 10.78515625 C7.24460937 11.88150391 7.24460937 11.88150391 7 13 C6.01 13.495 6.01 13.495 5 14 C5 15.98 5 17.96 5 20 C5.66 20.33 6.32 20.66 7 21 C6.34 21.99 5.68 22.98 5 24 C3.68 23.67 2.36 23.34 1 23 C1.66 23 2.32 23 3 23 C2.34 21.35 1.68 19.7 1 18 C1.66 18 2.32 18 3 18 C3 16.02 3 14.04 3 12 C3.66 12 4.32 12 5 12 C3.47793991 9.37098712 2.15634036 7.15634036 0 5 C-0.125 2.375 -0.125 2.375 0 0 Z " fill="#CCB073" transform="translate(257,136)"/>
<path d="M0 0 C1.32 0.66 2.64 1.32 4 2 C4 4.97 4 7.94 4 11 C4.66 10.34 5.32 9.68 6 9 C6 11.97 6 14.94 6 18 C6.66 18 7.32 18 8 18 C8 18.99 8 19.98 8 21 C4.85262818 20.30058404 1.97411124 19.23921302 -1 18 C-0.34 16.02 0.32 14.04 1 12 C0.34 12 -0.32 12 -1 12 C-0.67 8.04 -0.34 4.08 0 0 Z " fill="#EFEBE2" transform="translate(239,113)"/>
<path d="M0 0 C1.65 0.33 3.3 0.66 5 1 C5 2.32 5 3.64 5 5 C7.64 5 10.28 5 13 5 C12.67 7.31 12.34 9.62 12 12 C11.67 11.34 11.34 10.68 11 10 C9.02 10 7.04 10 5 10 C4.67 10.99 4.34 11.98 4 13 C4 12.34 4 11.68 4 11 C3.34 11 2.68 11 2 11 C1.67 8.69 1.34 6.38 1 4 C0.01 4.495 0.01 4.495 -1 5 C-0.67 3.35 -0.34 1.7 0 0 Z " fill="#CBAB65" transform="translate(243,120)"/>
<path d="M0 0 C0.99 0.33 1.98 0.66 3 1 C2.01 1.66 1.02 2.32 0 3 C-1.2159867 7.6428583 -1.23430977 12.23570143 -1 17 C-0.34 17.99 0.32 18.98 1 20 C-1.97 20.33 -4.94 20.66 -8 21 C-7.67 18.36 -7.34 15.72 -7 13 C-6.01 13 -5.02 13 -4 13 C-4.33 9.7 -4.66 6.4 -5 3 C-2.6875 1.4375 -2.6875 1.4375 0 0 Z " fill="#DAC494" transform="translate(228,131)"/>
<path d="M0 0 C1.98 0 3.96 0 6 0 C7.60725635 3.21451269 7.05748185 6.43612536 7 10 C3.7 9.67 0.4 9.34 -3 9 C-2.44271087 5.65626525 -1.64826111 2.96687001 0 0 Z " fill="#A63322" transform="translate(248,130)"/>
<path d="M0 0 C2.64 0 5.28 0 8 0 C8.13504138 1.93559313 8.23201129 3.873872 8.3125 5.8125 C8.39951172 7.43091797 8.39951172 7.43091797 8.48828125 9.08203125 C8 12 8 12 5.66796875 13.88671875 C3 15 3 15 0 15 C0.33 11.04 0.66 7.08 1 3 C1.66 3 2.32 3 3 3 C3.33 2.34 3.66 1.68 4 1 C2.68 0.67 1.36 0.34 0 0 Z " fill="#F3EFE5" transform="translate(223,119)"/>
<path d="M0 0 C2.64 0.33 5.28 0.66 8 1 C8.33 2.32 8.66 3.64 9 5 C4.20517932 7.75702189 0.41390868 8.53328373 -5 9 C-5 7.35 -5 5.7 -5 4 C-3.68 4.33 -2.36 4.66 -1 5 C-0.67 3.35 -0.34 1.7 0 0 Z " fill="#98A0BC" transform="translate(222,101)"/>
<path d="M0 0 C1.32 0 2.64 0 4 0 C3.67 1.32 3.34 2.64 3 4 C3 3.34 3 2.68 3 2 C2.34 2 1.68 2 1 2 C1.20625 2.886875 1.4125 3.77375 1.625 4.6875 C2.02550239 8.2252711 1.56683516 9.86632967 0 13 C-0.66 12.01 -1.32 11.02 -2 10 C-5.08365871 9.7497843 -5.08365871 9.7497843 -8 10 C-8.33 8.35 -8.66 6.7 -9 5 C-6.36 5 -3.72 5 -1 5 C-0.67 3.35 -0.34 1.7 0 0 Z " fill="#D6A53F" transform="translate(223,120)"/>
<path d="M0 0 C0.33 0.99 0.66 1.98 1 3 C0.01 3.66 -0.98 4.32 -2 5 C-2.33 6.65 -2.66 8.3 -3 10 C-0.03 8.02 2.94 6.04 6 4 C7 8 7 8 6 11 C6.99 11.33 7.98 11.66 9 12 C6.625 13.0625 6.625 13.0625 4 14 C3.34 13.67 2.68 13.34 2 13 C2 12.01 2 11.02 2 10 C1.01 10.66 0.02 11.32 -1 12 C-1.99 12 -2.98 12 -4 12 C-4.49230769 4.61538462 -4.49230769 4.61538462 -2 1.5 C-1.34 1.005 -0.68 0.51 0 0 Z " fill="#DAAF3A" transform="translate(214,141)"/>
<path d="M0 0 C2.4375 0.375 2.4375 0.375 5 1 C5.33 1.66 5.66 2.32 6 3 C6.99 3 7.98 3 9 3 C9 4.98 9 6.96 9 9 C8.67 8.34 8.34 7.68 8 7 C6.576875 7.2784375 6.576875 7.2784375 5.125 7.5625 C2 8 2 8 0 7 C-0.33 7.66 -0.66 8.32 -1 9 C-1.80967438 6.08517222 -2.21845993 4.53886783 -1.0625 1.6875 C-0.711875 1.130625 -0.36125 0.57375 0 0 Z " fill="#BF96A8" transform="translate(231,136)"/>
<path d="M0 0 C2.82604444 2.82604444 2.36679702 4.80726891 2.4375 8.75 C2.34120603 16.56586055 2.34120603 16.56586055 -0.3125 19.875 C-3 22 -3 22 -6 22 C-5.1875 20.0625 -5.1875 20.0625 -4 18 C-3.01 17.67 -2.02 17.34 -1 17 C-0.67 15.02 -0.34 13.04 0 11 C-2.31 11.33 -4.62 11.66 -7 12 C-7 11.34 -7 10.68 -7 10 C-4.69 10 -2.38 10 0 10 C-0.2784375 8.9171875 -0.2784375 8.9171875 -0.5625 7.8125 C-1.01995307 4.87173027 -0.73516357 2.85896942 0 0 Z " fill="#F3E9D8" transform="translate(213,125)"/>
<path d="M0 0 C0.66 0 1.32 0 2 0 C2.33 1.98 2.66 3.96 3 6 C5.47266765 5.65555119 5.47266765 5.65555119 8 5 C8.33 4.34 8.66 3.68 9 3 C9.66 3 10.32 3 11 3 C10.6875 5.375 10.6875 5.375 10 8 C6.91111478 10.05925681 6.29064073 10.2390374 2.8125 10.125 C0.9253125 10.063125 0.9253125 10.063125 -1 10 C-0.814375 9.05125 -0.62875 8.1025 -0.4375 7.125 C0.28686632 4.10131207 0.28686632 4.10131207 -1 2 C-0.67 1.34 -0.34 0.68 0 0 Z " fill="#476653" transform="translate(254,154)"/>
<path d="M0 0 C1.65 0 3.3 0 5 0 C5 1.98 5 3.96 5 6 C1.37 6 -2.26 6 -6 6 C-6.33 5.01 -6.66 4.02 -7 3 C-6 2 -6 2 -2.4375 1.9375 C-1.303125 1.958125 -0.16875 1.97875 1 2 C0.67 1.34 0.34 0.68 0 0 Z " fill="#C69442" transform="translate(223,164)"/>
<path d="M0 0 C1.32 0.33 2.64 0.66 4 1 C4 1.99 4 2.98 4 4 C4.99 3.01 5.98 2.02 7 1 C8.32 1.66 9.64 2.32 11 3 C11.33 2.34 11.66 1.68 12 1 C12 1.99 12 2.98 12 4 C13.32 4.66 14.64 5.32 16 6 C16 6.66 16 7.32 16 8 C14.02 8.99 14.02 8.99 12 10 C12 8.68 12 7.36 12 6 C9.08517222 5.19032562 7.53886783 4.78154007 4.6875 5.9375 C4.130625 6.288125 3.57375 6.63875 3 7 C2.67 5.35 2.34 3.7 2 2 C1.34 2 0.68 2 0 2 C0 1.34 0 0.68 0 0 Z " fill="#A0AFA7" transform="translate(233,153)"/>
<path d="M0 0 C2.77770508 0.52618898 5.49324357 1.13732381 8.21875 1.88671875 C6.89875 2.21671875 5.57875 2.54671875 4.21875 2.88671875 C4.095 3.69109375 3.97125 4.49546875 3.84375 5.32421875 C3.6375 6.16984375 3.43125 7.01546875 3.21875 7.88671875 C2.22875 8.38171875 2.22875 8.38171875 1.21875 8.88671875 C0.88875 7.56671875 0.55875 6.24671875 0.21875 4.88671875 C-2.42125 4.88671875 -5.06125 4.88671875 -7.78125 4.88671875 C-5.52609977 1.62063911 -4.12149578 -0.16786991 0 0 Z " fill="#E3E5DA" transform="translate(251.78125,162.11328125)"/>
<path d="M0 0 C1.98 0 3.96 0 6 0 C5.2884375 1.3921875 5.2884375 1.3921875 4.5625 2.8125 C2.95511125 5.91196237 2.95511125 5.91196237 2 9 C0.35 9 -1.3 9 -3 9 C-2.67 6.69 -2.34 4.38 -2 2 C-1.34 2 -0.68 2 0 2 C0 1.34 0 0.68 0 0 Z " fill="#A3AAC5" transform="translate(197,123)"/>
<path d="M0 0 C1.98 0.495 1.98 0.495 4 1 C4 1.66 4 2.32 4 3 C5.32 3.66 6.64 4.32 8 5 C8 5.66 8 6.32 8 7 C8.66 7 9.32 7 10 7 C9.67 8.65 9.34 10.3 9 12 C3.125 7.375 3.125 7.375 2 4 C1.01 3.67 0.02 3.34 -1 3 C-0.67 2.01 -0.34 1.02 0 0 Z " fill="#7E85A7" transform="translate(258,109)"/>
<path d="M0 0 C0.99 0.66 1.98 1.32 3 2 C3 2.99 3 3.98 3 5 C1.68 5.33 0.36 5.66 -1 6 C-1 5.01 -1 4.02 -1 3 C-2.65 2.67 -4.3 2.34 -6 2 C-5.67 2.99 -5.34 3.98 -5 5 C-5.99 5.33 -6.98 5.66 -8 6 C-8 4.35 -8 2.7 -8 1 C-4.93240944 -0.8624657 -3.38040761 -1.30854488 0 0 Z " fill="#BA3F4B" transform="translate(237,134)"/>
<path d="M0 0 C3.37462715 0.54723683 5.08235 1.0549 8 3 C8.21084478 5.35443337 7.99593827 7.55212559 7.8125 9.90625 C7.874375 10.5971875 7.93625 11.288125 8 12 C8.99 12.66 9.98 13.32 11 14 C9.68 15.32 8.36 16.64 7 18 C6.01 17.67 5.02 17.34 4 17 C4.66 17 5.32 17 6 17 C5.77178654 14.72687382 5.5166633 12.45643691 5.25 10.1875 C5.11078125 8.92292969 4.9715625 7.65835938 4.828125 6.35546875 C4.3063497 2.93303523 4.3063497 2.93303523 1.921875 1.05078125 C1.28765625 0.70402344 0.6534375 0.35726562 0 0 Z " fill="#CFB181" transform="translate(238,131)"/>
<path d="M0 0 C3.3 0 6.6 0 10 0 C9.67 1.65 9.34 3.3 9 5 C6.69 5 4.38 5 2 5 C1.67 5.66 1.34 6.32 1 7 C0.67 4.69 0.34 2.38 0 0 Z " fill="#6287AC" transform="translate(230,125)"/>
<path d="M0 0 C0.4140625 3.16015625 0.4140625 3.16015625 0.625 7.0625 C0.69976562 8.35285156 0.77453125 9.64320313 0.8515625 10.97265625 C0.90054688 11.97167969 0.94953125 12.97070312 1 14 C0.01 13.67 -0.98 13.34 -2 13 C-2.144375 11.9275 -2.28875 10.855 -2.4375 9.75 C-3.04051804 4.29171576 -3.04051804 4.29171576 -6 0 C-2.25 -1.125 -2.25 -1.125 0 0 Z " fill="#5C2B3B" transform="translate(243,134)"/>
<path d="M0 0 C-0.33 1.32 -0.66 2.64 -1 4 C-4.3 4 -7.6 4 -11 4 C-11.33 3.34 -11.66 2.68 -12 2 C-11.34 2 -10.68 2 -10 2 C-10 1.34 -10 0.68 -10 0 C-6.42355152 -1.2380014 -3.66305234 -0.74926071 0 0 Z " fill="#D0A754" transform="translate(254,167)"/>
<path d="M0 0 C0 0.99 0 1.98 0 3 C0.66 3 1.32 3 2 3 C2.66 4.98 3.32 6.96 4 9 C2.68 9 1.36 9 0 9 C-0.28875 8.195625 -0.5775 7.39125 -0.875 6.5625 C-1.73262568 3.8673532 -1.73262568 3.8673532 -4 3 C-4 2.01 -4 1.02 -4 0 C-5.65 0 -7.3 0 -9 0 C-9 -0.33 -9 -0.66 -9 -1 C-5.22102349 -2.0497157 -3.35080929 -2.10976881 0 0 Z " fill="#547167" transform="translate(233,152)"/>
<path d="M0 0 C0.99 0.33 1.98 0.66 3 1 C2.34 1 1.68 1 1 1 C1.33 3.31 1.66 5.62 2 8 C-2.62 7.34 -7.24 6.68 -12 6 C-12.33 4.68 -12.66 3.36 -13 2 C-11.515 2.99 -11.515 2.99 -10 4 C-7.49103314 4.45601261 -7.49103314 4.45601261 -4.8125 4.625 C-3.91144531 4.69976562 -3.01039063 4.77453125 -2.08203125 4.8515625 C-1.39496094 4.90054688 -0.70789063 4.94953125 0 5 C0 3.35 0 1.7 0 0 Z " fill="#F1E9D0" transform="translate(228,165)"/>
<path d="M0 0 C1.98 0 3.96 0 6 0 C6 2.31 6 4.62 6 7 C5.34 7 4.68 7 4 7 C3.67 6.67 3.34 6.34 3 6 C2.01 6 1.02 6 0 6 C0 4.02 0 2.04 0 0 Z " fill="#BA2022" transform="translate(248,130)"/>
<path d="M0 0 C0.33 0.66 0.66 1.32 1 2 C2.65 1.34 4.3 0.68 6 0 C6.33 1.65 6.66 3.3 7 5 C4 4 4 4 2 3 C1.67 3.66 1.34 4.32 1 5 C0.34 4.67 -0.32 4.34 -1 4 C-1 4.66 -1 5.32 -1 6 C-0.01 6.33 0.98 6.66 2 7 C1.67 7.66 1.34 8.32 1 9 C-2 8 -2 8 -4 5 C-3.67 4.34 -3.34 3.68 -3 3 C-2.01 3 -1.02 3 0 3 C0 2.01 0 1.02 0 0 Z " fill="#A8B7A6" transform="translate(225,154)"/>
<path d="M0 0 C1.32 0.66 2.64 1.32 4 2 C3.67 5.3 3.34 8.6 3 12 C1.68 12 0.36 12 -1 12 C-0.67 8.04 -0.34 4.08 0 0 Z " fill="#EADCD6" transform="translate(239,113)"/>
<path d="M0 0 C5.75 1.75 5.75 1.75 8 4 C7.01 4.99 6.02 5.98 5 7 C5.99 7.33 6.98 7.66 8 8 C7.01 8.495 7.01 8.495 6 9 C5.5875 8.54625 5.175 8.0925 4.75 7.625 C2.93591905 5.94049626 1.24714373 5.00734029 -1 4 C-0.67 2.68 -0.34 1.36 0 0 Z " fill="#DDDFE5" transform="translate(252,105)"/>
<path d="M0 0 C2.31 0.33 4.62 0.66 7 1 C7.33 2.65 7.66 4.3 8 6 C5.36 6 2.72 6 0 6 C0 4.02 0 2.04 0 0 Z " fill="#827460" transform="translate(231,120)"/>
<path d="M0 0 C0.66 0.33 1.32 0.66 2 1 C0.515 2.485 0.515 2.485 -1 4 C-0.01 5.485 -0.01 5.485 1 7 C0.01 7.99 -0.98 8.98 -2 10 C-2.99 9.67 -3.98 9.34 -5 9 C-5 6.69 -5 4.38 -5 2 C-3.35 2 -1.7 2 0 2 C0 1.34 0 0.68 0 0 Z " fill="#9EA5BE" transform="translate(206,112)"/>
<path d="M0 0 C0.66 0 1.32 0 2 0 C2 0.66 2 1.32 2 2 C3.32 1.67 4.64 1.34 6 1 C5.67 2.98 5.34 4.96 5 7 C2.03 6.505 2.03 6.505 -1 6 C-0.67 4.02 -0.34 2.04 0 0 Z " fill="#345D4B" transform="translate(213,154)"/>
<path d="M0 0 C2.97 1.98 2.97 1.98 6 4 C5.01 4.495 5.01 4.495 4 5 C4 6.98 4 8.96 4 11 C3.34 11 2.68 11 2 11 C-0.67927341 6.98108988 -0.15601248 4.75838077 0 0 Z " fill="#ECB426" transform="translate(256,143)"/>
<path d="M0 0 C0.66 0.99 1.32 1.98 2 3 C1.34 4.32 0.68 5.64 0 7 C-0.99 6.67 -1.98 6.34 -3 6 C-3.33 6.99 -3.66 7.98 -4 9 C-4.99 8.67 -5.98 8.34 -7 8 C-7 6.68 -7 5.36 -7 4 C-5.02 3.67 -3.04 3.34 -1 3 C-0.67 2.01 -0.34 1.02 0 0 Z " fill="#B35969" transform="translate(240,140)"/>
<path d="M0 0 C0.66 0 1.32 0 2 0 C2.33 2.31 2.66 4.62 3 7 C0.03 6.67 -2.94 6.34 -6 6 C-6 5.34 -6 4.68 -6 4 C-5.38125 3.896875 -4.7625 3.79375 -4.125 3.6875 C-1.63473516 3.12474627 -1.63473516 3.12474627 0 0 Z " fill="#ECECDD" transform="translate(247,145)"/>
<path d="M0 0 C2.64 0.33 5.28 0.66 8 1 C8 3.64 8 6.28 8 9 C6.84775972 8.07038578 5.70340824 7.1309875 4.5625 6.1875 C3.60537109 5.40439453 3.60537109 5.40439453 2.62890625 4.60546875 C1 3 1 3 0 0 Z " fill="#BC651B" transform="translate(248,142)"/>
<path d="M0 0 C0.268125 0.598125 0.53625 1.19625 0.8125 1.8125 C1.98493467 3.97224808 3.19369282 5.35790256 5 7 C4.67 7.66 4.34 8.32 4 9 C3.443125 8.814375 2.88625 8.62875 2.3125 8.4375 C-0.399133 7.92448835 -2.34371039 8.3359276 -5 9 C-5.33 8.34 -5.66 7.68 -6 7 C-4.35 6.67 -2.7 6.34 -1 6 C-0.67 4.02 -0.34 2.04 0 0 Z " fill="#48665B" transform="translate(219,155)"/>
<path d="M0 0 C3 1 3 1 4 3 C6.01669827 4.13350534 6.01669827 4.13350534 8 5 C8 5.33 8 5.66 8 6 C3.545 6.495 3.545 6.495 -1 7 C-0.67 4.69 -0.34 2.38 0 0 Z " fill="#F0EFDF" transform="translate(221,145)"/>
<path d="M0 0 C-3.1964086 1.06546953 -5.65747276 1.07427838 -9 1 C-9 0.34 -9 -0.32 -9 -1 C-10.98 -1 -12.96 -1 -15 -1 C-8.68428731 -4.50872927 -5.87652942 -4.50989467 0 0 Z " fill="#E7ECDE" transform="translate(225,166)"/>
<path d="M0 0 C0 3 0 6 0 9 C0.66 9.33 1.32 9.66 2 10 C1.01 11.485 1.01 11.485 0 13 C-1.32 12.67 -2.64 12.34 -4 12 C-3.34 12 -2.68 12 -2 12 C-2.66 10.35 -3.32 8.7 -4 7 C-3.34 7 -2.68 7 -2 7 C-2 5.02 -2 3.04 -2 1 C-1.34 0.67 -0.68 0.34 0 0 Z " fill="#C7AF5A" transform="translate(262,147)"/>
<path d="M0 0 C1.32 0 2.64 0 4 0 C3.67 1.32 3.34 2.64 3 4 C3 3.34 3 2.68 3 2 C2.34 2 1.68 2 1 2 C1.20625 2.886875 1.4125 3.77375 1.625 4.6875 C2.02550239 8.2252711 1.56683516 9.86632967 0 13 C-0.33 13 -0.66 13 -1 13 C-1.02686553 11.02090602 -1.04633375 9.04171029 -1.0625 7.0625 C-1.07410156 5.96035156 -1.08570313 4.85820313 -1.09765625 3.72265625 C-1 1 -1 1 0 0 Z " fill="#C49E59" transform="translate(223,120)"/>
<path d="M0 0 C1.32 0.33 2.64 0.66 4 1 C3.67 4.3 3.34 7.6 3 11 C2.67 10.01 2.34 9.02 2 8 C1.34 8 0.68 8 0 8 C0 5.36 0 2.72 0 0 Z " fill="#EEEDD3" transform="translate(205,148)"/>
<path d="M0 0 C0.33 0 0.66 0 1 0 C1.09796875 0.60328125 1.1959375 1.2065625 1.296875 1.828125 C2.22816157 6.80569116 2.97459341 9.64549451 7 13 C7 13.66 7 14.32 7 15 C3.60472311 13.59505784 1.69352977 12.30238306 0 9 C-0.24492511 5.98273114 -0.17422028 3.01981824 0 0 Z " fill="#EFE1BE" transform="translate(255,132)"/>
<path d="M0 0 C2.86724686 0.57344937 3.8614515 0.8614515 6 3 C4.02 3 2.04 3 0 3 C0 3.99 0 4.98 0 6 C-0.66 6 -1.32 6 -2 6 C-2.33 6.66 -2.66 7.32 -3 8 C-3.33 6.35 -3.66 4.7 -4 3 C-2.68 2.67 -1.36 2.34 0 2 C0 1.34 0 0.68 0 0 Z " fill="#8C5051" transform="translate(233,111)"/>
<path d="M0 0 C0.33 0.99 0.66 1.98 1 3 C1.99 3 2.98 3 4 3 C4 3.66 4 4.32 4 5 C0.7 4.67 -2.6 4.34 -6 4 C-5.67 3.01 -5.34 2.02 -5 1 C-3.35 0.67 -1.7 0.34 0 0 Z " fill="#2F1F33" transform="translate(237,129)"/>
<path d="M0 0 C0.66 0 1.32 0 2 0 C2.33 2.31 2.66 4.62 3 7 C4.32 6.67 5.64 6.34 7 6 C6.34 7.65 5.68 9.3 5 11 C2 9 2 9 1.375 6.625 C1.25125 5.75875 1.1275 4.8925 1 4 C0.67516582 2.66457061 0.3449145 1.33038449 0 0 Z " fill="#F0F1F1" transform="translate(214,103)"/>
<path d="M0 0 C2.97 0.33 5.94 0.66 9 1 C8.01 1.495 8.01 1.495 7 2 C7 2.99 7 3.98 7 5 C6.34 5 5.68 5 5 5 C5 4.01 5 3.02 5 2 C4.01 3.485 4.01 3.485 3 5 C2.01 5 1.02 5 0 5 C0 3.35 0 1.7 0 0 Z " fill="#7882A3" transform="translate(234,101)"/>
<path d="M0 0 C0.99 0 1.98 0 3 0 C3 1.98 3 3.96 3 6 C4.98 6 6.96 6 9 6 C5.77208445 8.1519437 4.71599191 8.20086443 1 8 C0.17361624 5.10765685 0 3.11257569 0 0 Z " fill="#F8F9F0" transform="translate(213,165)"/>
<path d="M0 0 C0.33 2.31 0.66 4.62 1 7 C0.01 6.67 -0.98 6.34 -2 6 C-1.67 5.34 -1.34 4.68 -1 4 C-4.3 3.34 -7.6 2.68 -11 2 C-11 1.67 -11 1.34 -11 1 C-3.375 0 -3.375 0 0 0 Z " fill="#F3EDD3" transform="translate(242,165)"/>
<path d="M0 0 C0.33 0.66 0.66 1.32 1 2 C3.01669827 3.13350534 3.01669827 3.13350534 5 4 C4.01 4.495 4.01 4.495 3 5 C2.67 5.99 2.34 6.98 2 8 C1.34 8 0.68 8 0 8 C0 6.35 0 4.7 0 3 C-1.32 3 -2.64 3 -4 3 C-4 2.34 -4 1.68 -4 1 C-2.68 0.67 -1.36 0.34 0 0 Z " fill="#AA7A30" transform="translate(242,161)"/>
<path d="M0 0 C2.31 0.33 4.62 0.66 7 1 C6.34 2.32 5.68 3.64 5 5 C2.69 4.67 0.38 4.34 -2 4 C-1.34 2.68 -0.68 1.36 0 0 Z " fill="#7B87A6" transform="translate(244,103)"/>
<path d="M0 0 C0 0.99 0 1.98 0 3 C0.66 3.33 1.32 3.66 2 4 C1.01 4.33 0.02 4.66 -1 5 C-1 4.34 -1 3.68 -1 3 C-1.66 3 -2.32 3 -3 3 C-3 4.65 -3 6.3 -3 8 C-3.99 8 -4.98 8 -6 8 C-5.62403791 5.21788056 -5.32681541 3.4120716 -3.5625 1.1875 C-2 0 -2 0 0 0 Z " fill="#DADDBD" transform="translate(216,151)"/>
<path d="M0 0 C0.33 0 0.66 0 1 0 C0.51282051 6.33333333 0.51282051 6.33333333 -1.875 9.4375 C-4 11 -4 11 -7 11 C-6.1875 9.0625 -6.1875 9.0625 -5 7 C-4.01 6.67 -3.02 6.34 -2 6 C-2 5.34 -2 4.68 -2 4 C-1.34 4 -0.68 4 0 4 C0 2.68 0 1.36 0 0 Z " fill="#F0DFB7" transform="translate(214,136)"/>
<path d="M0 0 C1.98 0 3.96 0 6 0 C6.33 1.98 6.66 3.96 7 6 C6.67 5.34 6.34 4.68 6 4 C4.02 4 2.04 4 0 4 C0 2.68 0 1.36 0 0 Z " fill="#D59034" transform="translate(248,126)"/>
<path d="M0 0 C0 0.66 0 1.32 0 2 C0.66 2 1.32 2 2 2 C2.33 3.65 2.66 5.3 3 7 C2.34 6.67 1.68 6.34 1 6 C0.01 6 -0.98 6 -2 6 C-2 5.01 -2 4.02 -2 3 C-2.66 3 -3.32 3 -4 3 C-4 2.34 -4 1.68 -4 1 C-2 0 -2 0 0 0 Z " fill="#7B83A2" transform="translate(271,120)"/>
<path d="M0 0 C0.99 0.33 1.98 0.66 3 1 C3 2.32 3 3.64 3 5 C0.03 5 -2.94 5 -6 5 C-6 4.34 -6 3.68 -6 3 C-5.195625 2.87625 -4.39125 2.7525 -3.5625 2.625 C-2.716875 2.41875 -1.87125 2.2125 -1 2 C-0.67 1.34 -0.34 0.68 0 0 Z " fill="#A42C16" transform="translate(221,134)"/>
<path d="M0 0 C0 1.65 0 3.3 0 5 C0.99 5.33 1.98 5.66 3 6 C0.03 6 -2.94 6 -6 6 C-5.01 5.67 -4.02 5.34 -3 5 C-3.33 3.68 -3.66 2.36 -4 1 C-2 0 -2 0 0 0 Z " fill="#E4E9EF" transform="translate(234,101)"/>
<path d="M0 0 C1.65 0 3.3 0 5 0 C4.67 1.98 4.34 3.96 4 6 C3.01 6.33 2.02 6.66 1 7 C0.67 4.69 0.34 2.38 0 0 Z " fill="#CFBD78" transform="translate(208,136)"/>
<path d="M0 0 C-0.33 0.66 -0.66 1.32 -1 2 C-1 2.66 -1 3.32 -1 4 C-3.31 4 -5.62 4 -8 4 C-8 3.01 -8 2.02 -8 1 C-2.25 -1.125 -2.25 -1.125 0 0 Z " fill="#B52025" transform="translate(223,133)"/>
<path d="M0 0 C0.625 1.875 0.625 1.875 1 4 C0.34 4.66 -0.32 5.32 -1 6 C-1.70710678 7.64991582 -2.37943989 9.31562256 -3 11 C-3.99 11 -4.98 11 -6 11 C-6 8 -6 8 -4.125 6.0625 C-3.42375 5.381875 -2.7225 4.70125 -2 4 C-0.76487921 1.86690808 -0.76487921 1.86690808 0 0 Z " fill="#DFE5EC" transform="translate(202,124)"/>
<path d="M0 0 C0.66 0 1.32 0 2 0 C2.12375 0.61875 2.2475 1.2375 2.375 1.875 C2.87197356 4.19120832 2.87197356 4.19120832 5 6 C2.69 6 0.38 6 -2 6 C-1.125 1.125 -1.125 1.125 0 0 Z " fill="#D6DCE6" transform="translate(199,117)"/>
<path d="M0 0 C1.04449911 3.13349732 0.93423645 3.98968256 0 7 C-0.33 6.34 -0.66 5.68 -1 5 C-3.01669827 3.86649466 -3.01669827 3.86649466 -5 3 C-5 2.34 -5 1.68 -5 1 C-3.35 0.67 -1.7 0.34 0 0 Z " fill="#A9AFC4" transform="translate(215,106)"/>
<path d="M0 0 C1.32 0.66 2.64 1.32 4 2 C3.67 3.32 3.34 4.64 3 6 C1.35 6 -0.3 6 -2 6 C-2 5.01 -2 4.02 -2 3 C-1.34 3 -0.68 3 0 3 C0 2.01 0 1.02 0 0 Z " fill="#561A22" transform="translate(233,114)"/>
<path d="M0 0 C1.98 0.495 1.98 0.495 4 1 C4 1.66 4 2.32 4 3 C4.99 3.33 5.98 3.66 7 4 C6.01 4.33 5.02 4.66 4 5 C3.67 5.66 3.34 6.32 3 7 C2.67 6.01 2.34 5.02 2 4 C1.01 3.67 0.02 3.34 -1 3 C-0.67 2.01 -0.34 1.02 0 0 Z " fill="#7077A2" transform="translate(258,109)"/>
<path d="M0 0 C3.3 0.66 6.6 1.32 10 2 C10 2.66 10 3.32 10 4 C5.71 3.67 1.42 3.34 -3 3 C-2.01 2.67 -1.02 2.34 0 2 C0 1.34 0 0.68 0 0 Z " fill="#A16D1F" transform="translate(226,161)"/>
<path d="M0 0 C1.32 0.66 2.64 1.32 4 2 C3.01 2.33 2.02 2.66 1 3 C0.34 6.63 -0.32 10.26 -1 14 C-2.09089489 9.63642042 -2.21644993 6.4732986 -2 2 C-1.34 1.34 -0.68 0.68 0 0 Z " fill="#501D2A" transform="translate(229,132)"/>
<path d="M0 0 C1.5 1.375 1.5 1.375 3 3 C3 3.66 3 4.32 3 5 C1.35 5.33 -0.3 5.66 -2 6 C-2.33 4.68 -2.66 3.36 -3 2 C-2.01 1.34 -1.02 0.68 0 0 Z " fill="#7C85A7" transform="translate(274,127)"/>
<path d="M0 0 C0.86625 0.556875 0.86625 0.556875 1.75 1.125 C0.43 1.125 -0.89 1.125 -2.25 1.125 C-2.53875 1.929375 -2.8275 2.73375 -3.125 3.5625 C-4.25 6.125 -4.25 6.125 -6.25 7.125 C-6.25 5.145 -6.25 3.165 -6.25 1.125 C-2.80384615 -1.09038462 -2.80384615 -1.09038462 0 0 Z " fill="#4E6F67" transform="translate(242.25,150.875)"/>
<path d="M0 0 C0.33 0 0.66 0 1 0 C0.98839844 0.74765625 0.97679687 1.4953125 0.96484375 2.265625 C0.95582031 3.25046875 0.94679687 4.2353125 0.9375 5.25 C0.92589844 6.22453125 0.91429687 7.1990625 0.90234375 8.203125 C0.98804423 10.65758678 1.29293934 12.66168914 2 15 C1.01 14.34 0.02 13.68 -1 13 C-1.2982655 8.45145106 -1.10962199 4.43848796 0 0 Z " fill="#3E2E42" transform="translate(227,135)"/>
<path d="M0 0 C0.66 0.33 1.32 0.66 2 1 C2 2.98 2 4.96 2 7 C-0.31 6.67 -2.62 6.34 -5 6 C-5 5.34 -5 4.68 -5 4 C-3.68 4 -2.36 4 -1 4 C-0.67 2.68 -0.34 1.36 0 0 Z " fill="#F8F7EA" transform="translate(228,113)"/>
<path d="M0 0 C-4.1795645 2.78637633 -6.14668677 1.79562512 -11 1 C-7.2297564 -1.56376565 -4.32597804 -0.83191885 0 0 Z " fill="#F8F5EF" transform="translate(254,171)"/>
<path d="M0 0 C0 0.99 0 1.98 0 3 C-2.31 2.67 -4.62 2.34 -7 2 C-7 1.34 -7 0.68 -7 0 C-3.86650268 -1.04449911 -3.01031744 -0.93423645 0 0 Z " fill="#63735A" transform="translate(231,158)"/>
<path d="M0 0 C2.46800047 1.15173355 4.04783565 2.04783565 6 4 C6 4.99 6 5.98 6 7 C5.01 7.33 4.02 7.66 3 8 C2.67 6.02 2.34 4.04 2 2 C1.34 2 0.68 2 0 2 C0 1.34 0 0.68 0 0 Z " fill="#D3DBC3" transform="translate(254,152)"/>
<path d="M0 0 C2.31 0 4.62 0 7 0 C6.67 0.66 6.34 1.32 6 2 C5.34 2 4.68 2 4 2 C4 2.66 4 3.32 4 4 C2.68 3.67 1.36 3.34 0 3 C0 2.01 0 1.02 0 0 Z " fill="#3B6554" transform="translate(240,152)"/>
<path d="M0 0 C0.99 0 1.98 0 3 0 C2.34 1.65 1.68 3.3 1 5 C-0.65 5 -2.3 5 -4 5 C-4 4.34 -4 3.68 -4 3 C-3.01 2.67 -2.02 2.34 -1 2 C-0.67 1.34 -0.34 0.68 0 0 Z " fill="#B2282D" transform="translate(237,146)"/>
<path d="M0 0 C-1.13499394 3.29148243 -1.99283376 3.9959869 -5.125 5.75 C-6.548125 6.36875 -6.548125 6.36875 -8 7 C-8 6.01 -8 5.02 -8 4 C-2.74285714 0 -2.74285714 0 0 0 Z " fill="#A54714" transform="translate(222,142)"/>
<path d="M0 0 C0.99 0 1.98 0 3 0 C3 1.98 3 3.96 3 6 C1.66666667 6 0.33333333 6 -1 6 C-1.042721 4.33388095 -1.04063832 2.66617115 -1 1 C-0.67 0.67 -0.34 0.34 0 0 Z " fill="#B28545" transform="translate(206,137)"/>
<path d="M0 0 C1.65 0 3.3 0 5 0 C5 1.98 5 3.96 5 6 C4.34 6 3.68 6 3 6 C2.67 6.66 2.34 7.32 2 8 C1.67 6.35 1.34 4.7 1 3 C1.66 3 2.32 3 3 3 C3.33 2.34 3.66 1.68 4 1 C2.68 0.67 1.36 0.34 0 0 Z " fill="#E5DAB2" transform="translate(223,119)"/>
<path d="M0 0 C1.2065625 0.0309375 1.2065625 0.0309375 2.4375 0.0625 C2.4375 1.3825 2.4375 2.7025 2.4375 4.0625 C0.7875 4.0625 -0.8625 4.0625 -2.5625 4.0625 C-2.8925 3.0725 -3.2225 2.0825 -3.5625 1.0625 C-2.5625 0.0625 -2.5625 0.0625 0 0 Z " fill="#D5B259" transform="translate(219.5625,165.9375)"/>
<path d="M0 0 C4 1 4 1 4 1 Z M-3 1 C-2.01 1 -1.02 1 0 1 C-0.375 3.4375 -0.375 3.4375 -1 6 C-1.99 6.495 -1.99 6.495 -3 7 C-4 4 -4 4 -3 1 Z " fill="#EEEEDB" transform="translate(256,164)"/>
<path d="M0 0 C1.32 0.33 2.64 0.66 4 1 C4 2.65 4 4.3 4 6 C3.01 5.67 2.02 5.34 1 5 C0.67 3.35 0.34 1.7 0 0 Z " fill="#9E723A" transform="translate(260,137)"/>
<path d="M0 0 C0.99 0.33 1.98 0.66 3 1 C0.66666667 3.33333333 -1.66666667 5.66666667 -4 8 C-4.33 6.35 -4.66 4.7 -5 3 C-2.6875 1.4375 -2.6875 1.4375 0 0 Z " fill="#C9945A" transform="translate(228,131)"/>
<path d="M0 0 C0.33 0.66 0.66 1.32 1 2 C1.99 2.33 2.98 2.66 4 3 C3.67 3.99 3.34 4.98 3 6 C1.35 6 -0.3 6 -2 6 C-2 5.34 -2 4.68 -2 4 C-1.34 4 -0.68 4 0 4 C0 2.68 0 1.36 0 0 Z " fill="#626C93" transform="translate(196,126)"/>
<path d="M0 0 C0.66 0 1.32 0 2 0 C2.66 1.98 3.32 3.96 4 6 C2.68 6 1.36 6 0 6 C-1.125 2.25 -1.125 2.25 0 0 Z " fill="#5B6451" transform="translate(233,155)"/>
<path d="M0 0 C2.9375 0.375 2.9375 0.375 6 1 C6.33 1.66 6.66 2.32 7 3 C4.03 3 1.06 3 -2 3 C-1.34 2.01 -0.68 1.02 0 0 Z " fill="#516C58" transform="translate(239,157)"/>
<path d="M0 0 C0.66 0 1.32 0 2 0 C2.33 0.99 2.66 1.98 3 3 C3.99 3.66 4.98 4.32 6 5 C4.34385343 5.38218767 2.67542976 5.71395102 1 6 C0 5 0 5 -0.0625 2.4375 C-0.041875 1.633125 -0.02125 0.82875 0 0 Z " fill="#4C694A" transform="translate(205,156)"/>
<path d="M0 0 C0.33 0 0.66 0 1 0 C0.67 3.3 0.34 6.6 0 10 C-0.99 8.68 -1.98 7.36 -3 6 C-2.01 4.02 -1.02 2.04 0 0 Z " fill="#CDB87D" transform="translate(264,139)"/>
<path d="M0 0 C1.98 0.99 1.98 0.99 4 2 C3.67 4.31 3.34 6.62 3 9 C0.23776722 6.23776722 0.42143709 3.79293383 0 0 Z " fill="#E8E3DF" transform="translate(239,113)"/>
<path d="M0 0 C1.98 0.495 1.98 0.495 4 1 C3.34 2.32 2.68 3.64 2 5 C1.01 4.67 0.02 4.34 -1 4 C-0.67 2.68 -0.34 1.36 0 0 Z " fill="#7983A5" transform="translate(252,105)"/>
</svg>
